<?xml version="1.0" encoding="utf-8"?>
<!-- Generator: Adobe Illustrator 19.2.1, SVG Export Plug-In . SVG Version: 6.00 Build 0)  -->
<svg version="1.1" id="Layer_1" xmlns="http://www.w3.org/2000/svg" xmlns:xlink="http://www.w3.org/1999/xlink" x="0px" y="0px"
	 viewBox="0 0 385 385" style="enable-background:new 0 0 385 385;" xml:space="preserve">
<style type="text/css">
	.st0{fill:#E2E2E2;}
	.st1{fill:#EFE5B9;}
	.st2{fill:#FFFFFF;stroke:#595959;stroke-width:3.0537;stroke-miterlimit:10;}
	.st3{fill:#595959;}
	.st4{font-family:'Helvetica';}
	.st5{font-size:37.0231px;}
	.st6{fill:#5D5D5D;}
	.st7{fill:none;stroke:#5A6E5C;stroke-width:2;stroke-miterlimit:10;}
	.st8{opacity:0.77;fill:#353535;enable-background:new    ;}
	.st9{fill:#0CBF0C;stroke:#000000;stroke-width:0.7412;stroke-miterlimit:10;}
</style>
<path class="st0" d="M165,250.2c4.7,3.7,14.3,6.2,14.3,6.2s13.2,11.4,48.8,11.4c37,0,48.8-9.4,48.8-9.4s9.3-3.7,14.3-6.2
	c4.7-3.7,8.2-9.4,8.2-9.4s0.5-17.9-2.9-22.9c-6.2-7.1-18-14.6-27.3-17.1c-3.6-1.2-8.2-2.5-11.9-4.8c0-1.2,1.1-2.5,1.1-2.5l-10.7-6.2
	c0,0,0,0-1.1,1.2V182c2.5-2.5,4.7-4.8,6.2-7.1c6.2-8.3,1.1-26.5,1.1-26.5s-2.5-30.2-26.2-30.2c-28.7,0-29.8,28.3-29.8,28.3
	s0,20.2,6.2,28.5c1.1,2.5,3.6,4.8,6.2,7.1v8.3c0-1.2-1.1-1.2-1.1-1.2l-10.7,4.3c0,0,0,1.2,1.1,2.5c-3.6,2.5-8.2,3.7-11.9,4.8
	c-9.3,2.5-21.4,9.4-27.3,17.1c-3.6,4.8-3.6,22.8-3.6,22.8S160.4,247,165,250.2z"/>
<g>
	<path class="st1" d="M80.9,335.5h222.5c17.2,0,31.3-14,31.3-31.2V81.8c0-17.2-14.1-31.3-31.3-31.3H80.9c-14.2,0-26.3,9.7-30.1,22.7
		v239.5C54.6,325.8,66.7,335.5,80.9,335.5z"/>
</g>
<g>
	<circle class="st2" cx="209.1" cy="130.5" r="24.4"/>
	<circle class="st3" cx="209.1" cy="130.5" r="18.4"/>
	<circle class="st2" cx="286.3" cy="130.5" r="24.4"/>
	<circle class="st2" cx="133.3" cy="130.5" r="24.4"/>
</g>
<g>
	<circle class="st2" cx="209.1" cy="218.7" r="24.4"/>
	<circle class="st2" cx="286.3" cy="218.7" r="24.4"/>
	<circle class="st2" cx="133.3" cy="218.7" r="24.4"/>
	<circle class="st3" cx="286.3" cy="218.7" r="18.4"/>
</g>
<g>
	<circle class="st2" cx="209.1" cy="295.5" r="24.4"/>
	<circle class="st2" cx="286.3" cy="295.5" r="24.4"/>
	<circle class="st2" cx="133.3" cy="295.5" r="24.4"/>
	<circle class="st3" cx="133.3" cy="295.5" r="18.4"/>
</g>
<text transform="matrix(1 0 0 1 115.3485 88.7363)" class="st3 st4 st5">A</text>
<text transform="matrix(1 0 0 1 200.139 88.75)" class="st3 st4 st5">B</text>
<text transform="matrix(1 0 0 1 273.6839 88.75)" class="st3 st4 st5">C</text>
<text transform="matrix(1 0 0 1 61.0291 138.1592)" class="st6 st4 st5">1.</text>
<text transform="matrix(1 0 0 1 61.0291 228.3828)" class="st6 st4 st5">2</text>
<text transform="matrix(1 0 0 1 61.0291 305.5273)" class="st6 st4 st5">3.</text>
<path id="square_9_" class="st7" d="M303.4,335.5H80.9c-17.2,0-31.3-14.1-31.3-31.3V81.8c0-17.2,14.1-31.3,31.3-31.3h222.5
	c17.2,0,31.3,14.1,31.3,31.3v222.5C334.7,321.5,320.6,335.5,303.4,335.5z"/>
<path class="st8" d="M321.7,40c-115.5-44.5-165.2,6.7-179.3,76.3c-11.2-2.3-26.8-6.7-26.8-6.7c22.1,42.2,28.9,64.5,34.1,74.9
	c17.1-14.1,37.7-34.1,59.3-54.9c0,0-11.9-3.7-26.8-6C192.1,75.7,203.3,37.1,321.7,40z"/>
<path class="st9" d="M324.8,34.8C209-9.5,148.4,38.7,134.3,109c-11.2-2.3-26.8-6.7-26.8-6.7c22.1,42.2,28.9,64.5,34.1,74.9
	c17.1-14.1,37.7-34.1,59.3-54.9c0,0-11.9-3.7-26.8-6C184,68.3,206.1,31.9,324.8,34.8z"/>
</svg>
