<?xml version="1.0" encoding="utf-8"?>
<!-- Generator: Adobe Illustrator 19.2.1, SVG Export Plug-In . SVG Version: 6.00 Build 0)  -->
<svg version="1.1" id="Layer_1" xmlns="http://www.w3.org/2000/svg" xmlns:xlink="http://www.w3.org/1999/xlink" x="0px" y="0px"
	 viewBox="0 0 385 385" style="enable-background:new 0 0 385 385;" xml:space="preserve">
<style type="text/css">
	.st0{fill:url(#square_2_);}
	.st1{fill:#46484A;}
	.st2{fill:none;}
	.st3{fill:url(#SVGID_1_);}
	.st4{fill:url(#SVGID_2_);}
	.st5{fill:url(#SVGID_3_);}
	.st6{fill:url(#SVGID_4_);}
	.st7{fill:url(#SVGID_5_);}
	.st8{fill:url(#SVGID_6_);}
	.st9{fill:url(#SVGID_7_);}
	.st10{fill:url(#SVGID_8_);}
	.st11{fill:url(#SVGID_9_);}
	.st12{fill:url(#SVGID_10_);}
	.st13{fill:url(#SVGID_11_);}
	.st14{fill:#FFFFFF;}
	.st15{font-family:'ArialMT';}
	.st16{font-size:48px;}
	.st17{fill:none;stroke:#5A6E5C;stroke-width:2;stroke-miterlimit:10;}
</style>
<linearGradient id="square_2_" gradientUnits="userSpaceOnUse" x1="195.25" y1="50.5" x2="195.25" y2="335.6">
	<stop  offset="0" style="stop-color:#FFFFFF"/>
	<stop  offset="1" style="stop-color:#FFF8E8"/>
</linearGradient>
<path id="square_16_" class="st0" d="M337.8,304.3c0,17.2-14.1,31.3-31.3,31.3H84c-17.3-0.1-31.3-14.1-31.3-31.3V81.8
	c0-17.2,14.1-31.3,31.3-31.3h222.5c17.2,0,31.3,14.1,31.3,31.3"/>
<path class="st1" d="M-266.3,164.1"/>
<g>
	<path class="st2" d="M80.9,50.5h115.6c-0.1,0.6-0.2,1.2-0.2,1.8v10H69.8c-6.6,0-12,5.4-12,12v250.9c-5.1-5.5-8.2-12.9-8.2-21V81.8
		C49.6,64.6,63.7,50.5,80.9,50.5z"/>
	
		<linearGradient id="SVGID_1_" gradientUnits="userSpaceOnUse" x1="148.5" y1="198.9313" x2="326.5" y2="198.9313" gradientTransform="matrix(-1 0 0 1 384.3 0)">
		<stop  offset="0" style="stop-color:#026580"/>
		<stop  offset="1" style="stop-color:#038193"/>
	</linearGradient>
	<path class="st3" d="M69.8,62.4h126.5v32.8H141c-6.6,0-12,5.4-12,12v228.3H80.9c-9.1,0-17.4-3.9-23.1-10.2V74.4
		C57.8,67.8,63.2,62.4,69.8,62.4z"/>
	
		<linearGradient id="SVGID_2_" gradientUnits="userSpaceOnUse" x1="148.5" y1="215.3491" x2="326.5" y2="215.3491" gradientTransform="matrix(-1 0 0 1 384.3 0)">
		<stop  offset="0" style="stop-color:#026580"/>
		<stop  offset="1" style="stop-color:#038193"/>
	</linearGradient>
	<path class="st4" d="M141,95.2h55.2v240.3H129V107.2C129,100.6,134.5,95.2,141,95.2z"/>
	
		<linearGradient id="SVGID_3_" gradientUnits="userSpaceOnUse" x1="77.25" y1="215.3491" x2="255.25" y2="215.3491" gradientTransform="matrix(-1 0 0 1 384.3 0)">
		<stop  offset="0" style="stop-color:#346B37"/>
		<stop  offset="0.1989" style="stop-color:#387139"/>
		<stop  offset="0.4563" style="stop-color:#42813D"/>
		<stop  offset="0.7446" style="stop-color:#529B45"/>
		<stop  offset="1" style="stop-color:#65B94D"/>
	</linearGradient>
	<path class="st5" d="M141,95.2h55.2v240.3H129V107.2C129,100.6,134.5,95.2,141,95.2z"/>
	
		<linearGradient id="SVGID_4_" gradientUnits="userSpaceOnUse" x1="10" y1="192.889" x2="188" y2="192.889" gradientTransform="matrix(-1 0 0 1 384.3 0)">
		<stop  offset="0" style="stop-color:#D5C015"/>
		<stop  offset="0.2791" style="stop-color:#D5BB1B"/>
		<stop  offset="0.6396" style="stop-color:#D6AD2B"/>
		<stop  offset="1" style="stop-color:#D79842"/>
	</linearGradient>
	<path class="st6" d="M295,95.2h-59.2V74.4c0-6.6-5.4-12-12-12h-27.5v-10c0-0.6,0.1-1.2,0.2-1.8h106.9c17.2,0,31.3,14.1,31.3,31.3
		v222.4c0,16-12.2,29.3-27.7,31.1V107.2C307,100.6,301.6,95.2,295,95.2z"/>
	
		<linearGradient id="SVGID_5_" gradientUnits="userSpaceOnUse" x1="148.5" y1="78.7804" x2="326.5" y2="78.7804" gradientTransform="matrix(-1 0 0 1 384.3 0)">
		<stop  offset="0" style="stop-color:#026580"/>
		<stop  offset="1" style="stop-color:#038193"/>
	</linearGradient>
	<path class="st7" d="M235.8,74.4v20.8h-39.5V62.4h27.5C230.4,62.4,235.8,67.8,235.8,74.4z"/>
	
		<linearGradient id="SVGID_6_" gradientUnits="userSpaceOnUse" x1="10" y1="78.7804" x2="188" y2="78.7804" gradientTransform="matrix(-1 0 0 1 384.3 0)">
		<stop  offset="0" style="stop-color:#D5C015"/>
		<stop  offset="0.2791" style="stop-color:#D5BB1B"/>
		<stop  offset="0.6396" style="stop-color:#D6AD2B"/>
		<stop  offset="1" style="stop-color:#D79842"/>
	</linearGradient>
	<path class="st8" d="M235.8,74.4v20.8h-39.5V62.4h27.5C230.4,62.4,235.8,67.8,235.8,74.4z"/>
	
		<linearGradient id="SVGID_7_" gradientUnits="userSpaceOnUse" x1="77.25" y1="215.3491" x2="255.25" y2="215.3491" gradientTransform="matrix(-1 0 0 1 384.3 0)">
		<stop  offset="0" style="stop-color:#346B37"/>
		<stop  offset="0.1989" style="stop-color:#387139"/>
		<stop  offset="0.4563" style="stop-color:#42813D"/>
		<stop  offset="0.7446" style="stop-color:#529B45"/>
		<stop  offset="1" style="stop-color:#65B94D"/>
	</linearGradient>
	<path class="st9" d="M295,95.2c6.6,0,12,5.4,12,12v228.1c-1.2,0.1-2.4,0.2-3.7,0.2h-67.6V95.2H295z"/>
	
		<linearGradient id="SVGID_8_" gradientUnits="userSpaceOnUse" x1="10" y1="215.3491" x2="188" y2="215.3491" gradientTransform="matrix(-1 0 0 1 384.3 0)">
		<stop  offset="0" style="stop-color:#D5C015"/>
		<stop  offset="0.2791" style="stop-color:#D5BB1B"/>
		<stop  offset="0.6396" style="stop-color:#D6AD2B"/>
		<stop  offset="1" style="stop-color:#D79842"/>
	</linearGradient>
	<path class="st10" d="M295,95.2c6.6,0,12,5.4,12,12v228.1c-1.2,0.1-2.4,0.2-3.7,0.2h-67.6V95.2H295z"/>
	
		<linearGradient id="SVGID_9_" gradientUnits="userSpaceOnUse" x1="148.5" y1="215.3491" x2="326.5" y2="215.3491" gradientTransform="matrix(-1 0 0 1 384.3 0)">
		<stop  offset="0" style="stop-color:#026580"/>
		<stop  offset="1" style="stop-color:#038193"/>
	</linearGradient>
	<rect x="196.3" y="95.2" class="st11" width="39.5" height="240.3"/>
	
		<linearGradient id="SVGID_10_" gradientUnits="userSpaceOnUse" x1="77.25" y1="215.3491" x2="255.25" y2="215.3491" gradientTransform="matrix(-1 0 0 1 384.3 0)">
		<stop  offset="0" style="stop-color:#346B37"/>
		<stop  offset="0.1989" style="stop-color:#387139"/>
		<stop  offset="0.4563" style="stop-color:#42813D"/>
		<stop  offset="0.7446" style="stop-color:#529B45"/>
		<stop  offset="1" style="stop-color:#65B94D"/>
	</linearGradient>
	<rect x="196.3" y="95.2" class="st12" width="39.5" height="240.3"/>
	
		<linearGradient id="SVGID_11_" gradientUnits="userSpaceOnUse" x1="10" y1="215.3491" x2="188" y2="215.3491" gradientTransform="matrix(-1 0 0 1 384.3 0)">
		<stop  offset="0" style="stop-color:#D5C015"/>
		<stop  offset="0.2791" style="stop-color:#D5BB1B"/>
		<stop  offset="0.6396" style="stop-color:#D6AD2B"/>
		<stop  offset="1" style="stop-color:#D79842"/>
	</linearGradient>
	<rect x="196.3" y="95.2" class="st13" width="39.5" height="240.3"/>
</g>
<text transform="matrix(2.244830e-10 1 -1 2.244830e-10 70.7402 87.7802)" class="st14 st15 st16">Guide 1</text>
<text transform="matrix(2.244830e-10 1 -1 2.244830e-10 144.0508 144.9625)" class="st14 st15 st16">Guide 2</text>
<text transform="matrix(2.244830e-10 1 -1 2.244830e-10 216.0508 72.4757)" class="st14 st15 st16">Guide 3</text>
<path id="square_1_" class="st17" d="M303.4,335.5H80.9c-17.2,0-31.3-14.1-31.3-31.3V81.8c0-17.2,14.1-31.3,31.3-31.3h222.5
	c17.2,0,31.3,14.1,31.3,31.3v222.5C334.7,321.5,320.6,335.5,303.4,335.5z"/>
</svg>
