<?xml version="1.0" encoding="utf-8"?>
<!-- Generator: Adobe Illustrator 19.2.1, SVG Export Plug-In . SVG Version: 6.00 Build 0)  -->
<svg version="1.1" id="Layer_1" xmlns="http://www.w3.org/2000/svg" xmlns:xlink="http://www.w3.org/1999/xlink" x="0px" y="0px"
	 viewBox="0 0 385 385" style="enable-background:new 0 0 385 385;" xml:space="preserve">
<style type="text/css">
	.st0{fill:url(#square_1_);}
	.st1{fill:#231F20;}
	.st2{fill:#12A012;stroke:#3B61AD;stroke-width:2;stroke-miterlimit:10;}
	.st3{fill:#9D885E;stroke:#8C7257;stroke-width:2.0367;stroke-miterlimit:10;}
	.st4{fill:#E5C8AA;stroke:#AD9D71;stroke-width:2;stroke-miterlimit:10;}
	.st5{opacity:0.75;fill:#51514C;enable-background:new    ;}
	.st6{fill:#FFFFFF;stroke:#51514C;stroke-width:2;stroke-miterlimit:10;}
	.st7{fill:none;}
	.st8{fill:#FFFFFF;}
	.st9{fill:#D8D6D7;stroke:#4C4748;stroke-miterlimit:10;}
	.st10{fill:#C0392B;}
	.st11{fill:#545253;}
	.st12{opacity:0.77;fill:#353535;enable-background:new    ;}
	.st13{fill:#FFB339;stroke:#6B4B03;stroke-width:0.6098;stroke-miterlimit:10;}
	.st14{fill:none;stroke:#5A6E5C;stroke-width:2;stroke-miterlimit:10;}
</style>
<g id="Layer_2_1_">
	<linearGradient id="square_1_" gradientUnits="userSpaceOnUse" x1="192.25" y1="50.5" x2="192.25" y2="335.6">
		<stop  offset="0" style="stop-color:#FFFFFF"/>
		<stop  offset="1" style="stop-color:#FFF8E8"/>
	</linearGradient>
	<path id="square_16_" class="st0" d="M334.8,304.3c0,17.2-14.1,31.3-31.3,31.3H81c-17.3-0.1-31.3-14.1-31.3-31.3V81.8
		c0-17.2,14.1-31.3,31.3-31.3h222.5c17.2,0,31.3,14.1,31.3,31.3"/>
	<path class="st1" d="M89.4,121.2c4.1,1.5,44.8,8.1,61.1,8.1c18.7,0,62.8-4.1,66.8-8.1c4.1-3.3-58.7-4.8-58.7-4.8L89.4,121.2"/>
	<path class="st2" d="M191.1,211.7l-38.3,1.5l-38.3-1.4c0,0-29.3,17.8-49.8,23.7c-4.8,1.3-10,3.1-15.1,5.3v63.5
		c0,16.5,12.8,30,29.1,31.2h184.6c17.2,0,31.3-14,31.3-31.2V266c-13.8-13.7-36.1-25.5-53.8-30.6
		C220.5,229.7,191.1,211.7,191.1,211.7z"/>
	<polyline class="st3" points="193.7,259.9 153.7,249.3 113.8,259.9 113.8,193 193.7,193 193.7,259.9 	"/>
	<path class="st4" d="M218.1,124.7c0,0,3.3-63.5-64.4-63.5c-62.8,0-64.4,63.5-64.4,63.5s-1.5,36.7,11.3,54.6s40.7,34.2,53,34.2
		c12.4,0,40-16.3,53-34.2C219.6,161.2,218.1,124.7,218.1,124.7L218.1,124.7z"/>
	<path class="st5" d="M112.2,220.8c0,0,25.2,20.4,35.9,24.4c10.6,4.8,7.4,4.8,7.4,4.8s-17.2,30.9-17.8,30.9c-1.5,0-16.3-5.7-29.3-22
		c-9.9-12.2-23-30.9-23-30.9l28.5-8.1L112.2,220.8z"/>
	<path class="st5" d="M198.5,220.8c0,0-26.9,26.1-39.1,26.1c-2.4,0-4.1,3.3-4.1,3.3s15.4,35,17.8,35.9c0.9,0,17.2-10.6,30.2-26.1
		c8.9-11.3,20.4-28.5,21.1-30.9L198.5,220.8L198.5,220.8z"/>
	<path class="st6" d="M112.2,211.8c0,0,22,27.6,32.6,32.6s10.6,4.8,10.6,4.8s-17.2,28.5-18.7,30.2c-2.4,2.4-20.4-10.6-33.5-26.1
		c-9.8-12.2-18.7-26.1-18.7-26.1L112.2,211.8L112.2,211.8z"/>
	<path class="st6" d="M198.5,211.8c0,0-22,27.6-32.6,32.6s-10.6,4.8-10.6,4.8s15.4,33.5,17.8,35.9c2.4,2.4,21.1-16.3,34.2-31.7
		c9.8-12.2,17.2-26.1,17.2-26.1L198.5,211.8L198.5,211.8z"/>
</g>
<g id="Layer_1_1_">
	<g>
		<path class="st7" d="M215.2,320.3c-2.3-41.4,29.2-77.4,70.7-79.9c18.1-1.1,35.2,4.4,48.9,14.3V81.8c0-17.2-14.1-31.3-31.3-31.3H81
			c-17.2,0-31.3,14.1-31.3,31.3v222.5c0,17.2,14,31.2,31.3,31.3h136.8C216.4,330.7,215.5,325.5,215.2,320.3z"/>
		<path class="st8" d="M287.1,257.4c-32.3,1.8-56.6,29.4-54.8,61.7c0.3,5.8,1.5,11.3,3.3,16.5h67.9c17.2,0,31.3-14.1,31.3-31.3
			v-26.6C323.4,264.4,306.1,256.4,287.1,257.4z"/>
		<path class="st9" d="M285.9,240.4c-41.4,2.5-73,38.4-70.7,79.9c0.3,5.3,1.2,10.4,2.5,15.3h17.9c-1.9-5.2-3-10.7-3.3-16.5
			c-1.8-32.3,22.6-59.8,54.8-61.7c19-1,36.3,7,47.7,20.3v-23C321.1,244.7,304,239.3,285.9,240.4z"/>
	</g>
	<g>
		<path class="st10" d="M288.2,316.6v1.5l-31.9,3.5v-3.5C256.2,318.1,288.1,315.8,288.2,316.6L288.2,316.6z"/>
	</g>
	<circle class="st11" cx="290.9" cy="316.1" r="5.5"/>
	<g>
		<path class="st11" d="M288.8,315.3c0,0-5.4-11.5-10.3-23.9c-1.1-3.3-2.9-6.1-3.7-8.5c-1.1-3.3-0.9-6-1.6-8.2
			c-0.7-5.1,0.8-8.9,0.8-8.9l0.9-0.3c0,0,2.6,2.8,5.8,6.8c1.6,2.1,2.4,4.5,3.4,7.6s0.9,6,1.9,9C288,301.5,289.7,315,288.8,315.3
			L288.8,315.3z"/>
	</g>
	<g>
		<path class="st11" d="M292.8,313.7c0,0,7.7-1.3,14.8-2.9c2.1,0,3.5-0.8,5.6-0.8c1.3,0,3.5,0.8,5,0.8c2.9,0.8,5,2.9,5,2.9v0.8
			c0,0-2.1,1.3-5,2.9c-2.1,0-3.5,0.8-5,0.8c-1.3,0-3.5-0.8-5.6-0.8C299.7,315.8,292.8,314.5,292.8,313.7L292.8,313.7z"/>
	</g>
	<path class="st12" d="M303.6,241.7c-31.1-6-76.2,12.9-84.1,52.5c-6,0-16.5-1.8-16.5-1.8c11,24.4,17,26.2,20.1,29.9
		c11-11.5,9.2-9.7,21.9-25.6c0,0-3.7,0.7-10.4-0.7C239,282,247,249.1,303.6,241.7z"/>
	<path class="st13" d="M314,236.9c-65.2-25.1-101.3,2.5-109.1,41.4c-6.7-0.7-13.4-3.7-13.4-3.7c8.5,25.1,20.7,35.4,23.2,39.1
		c10.4-5.5,18.9-14,29.2-27.4c0,0-6-1.2-14-4.3C237.8,255.8,247,235,314,236.9z"/>
</g>
<path id="square_2_" class="st14" d="M303.4,335.5H80.9c-17.2,0-31.3-14.1-31.3-31.3V81.8c0-17.2,14.1-31.3,31.3-31.3h222.5
	c17.2,0,31.3,14.1,31.3,31.3v222.5C334.7,321.5,320.6,335.5,303.4,335.5z"/>
</svg>
