<?xml version="1.0" encoding="utf-8"?>
<!-- Generator: Adobe Illustrator 19.2.1, SVG Export Plug-In . SVG Version: 6.00 Build 0)  -->
<svg version="1.1" id="Layer_1" xmlns="http://www.w3.org/2000/svg" xmlns:xlink="http://www.w3.org/1999/xlink" x="0px" y="0px"
	 viewBox="0 0 385 385" style="enable-background:new 0 0 385 385;" xml:space="preserve">
<style type="text/css">
	.st0{fill:url(#square_2_);}
	.st1{fill:none;}
	.st2{fill:#FFB815;stroke:#5A6E5C;stroke-miterlimit:10;}
	.st3{fill:#006CBF;stroke:#5A6E5C;stroke-miterlimit:10;}
	.st4{fill:#19C614;stroke:#5A6E5C;stroke-miterlimit:10;}
	.st5{fill:#D41100;stroke:#5A6E5C;stroke-miterlimit:10;}
	.st6{fill:none;stroke:#5A6E5C;stroke-width:2;stroke-miterlimit:10;}
</style>
<g>
	
		<linearGradient id="square_2_" gradientUnits="userSpaceOnUse" x1="192.25" y1="334.5" x2="192.25" y2="49.4" gradientTransform="matrix(1 0 0 -1 0 385)">
		<stop  offset="0" style="stop-color:#FFFFFF"/>
		<stop  offset="1" style="stop-color:#FFF8E8"/>
	</linearGradient>
	<path id="square_1_" class="st0" d="M334.8,304.3c0,17.2-14.1,31.3-31.3,31.3H81c-17.3-0.1-31.3-14.1-31.3-31.3V81.8
		c0-17.2,14.1-31.3,31.3-31.3h222.5c17.2,0,31.3,14.1,31.3,31.3"/>
	<path class="st1" d="M263.4,64h65.7c-5.7-8.1-15.1-13.5-25.7-13.5H80.9c-17.2,0-31.3,14.1-31.3,31.3v222.4c0,0.5,0,1,0,1.5V196.1
		h70.7v138.3H72.7c2.6,0.7,5.4,1.1,8.2,1.1h222.5c3.7,0,7.2-0.6,10.5-1.8h-50.5V64z M191.1,333.7H123v-87.6h68.1V333.7z
		 M260.7,333.7h-68.1V132.4h68.1V333.7z"/>
	<path class="st1" d="M334.7,80.1V306c0-0.6,0-1.1,0-1.7V81.8C334.7,81.2,334.7,80.7,334.7,80.1z"/>
	<path class="st2" d="M119.4,196.1H48.6v109.6c0.7,13.7,10.3,25.2,23.1,28.7h47.7C119.4,334.4,119.4,196.1,119.4,196.1z"/>
	<path class="st3" d="M266.7,335.5h36.7c17.2,0,31.3-14,31.3-31.2V132.4h-68V335.5z"/>
	<path class="st4" d="M192.4,64.1v271.4h72.3c0-61.4-0.1-265.8-0.7-271.4C264,64.1,192.4,64.1,192.4,64.1z"/>
	<rect x="122" y="246.1" class="st5" width="68.1" height="87.6"/>
</g>
<path id="square_9_" class="st6" d="M303.4,335.5H80.9c-17.2,0-31.3-14.1-31.3-31.3V81.8c0-17.2,14.1-31.3,31.3-31.3h222.5
	c17.2,0,31.3,14.1,31.3,31.3v222.5C334.7,321.5,320.6,335.5,303.4,335.5z"/>
</svg>
